<?xml version="1.0" standalone="no"?>
<!DOCTYPE svg PUBLIC "-//W3C//DTD SVG 20010904//EN"
 "http://www.w3.org/TR/2001/REC-SVG-20010904/DTD/svg10.dtd">
<svg version="1.0" xmlns="http://www.w3.org/2000/svg"
 width="200.000000pt" height="100.000000pt" viewBox="0 0 200.000000 100.000000"
 preserveAspectRatio="xMidYMid meet">
<metadata>
Created by potrace 1.10, written by Peter Selinger 2001-2011
</metadata>
<g transform="translate(0.000000,100.000000) scale(0.100000,-0.100000)"
fill="#ff00ff" stroke="none">
<path d="M328 973 c7 -3 16 -2 19 1 4 3 -2 6 -13 5 -11 0 -14 -3 -6 -6z"/>
<path d="M233 910 c-57 -28 -96 -56 -130 -93 -50 -56 -111 -157 -94 -157 5 0
13 10 17 22 5 18 8 19 15 6 6 -10 2 -36 -11 -72 -28 -81 -21 -189 18 -276 34
-78 64 -130 75 -130 5 0 5 -4 2 -10 -3 -5 1 -10 9 -10 9 0 16 -5 16 -10 0 -6
3 -9 8 -8 4 2 18 -7 32 -19 13 -13 31 -23 40 -23 9 0 20 -4 26 -8 5 -5 34 -16
64 -25 62 -19 213 -18 233 2 6 6 20 11 30 11 20 0 100 40 105 53 2 4 10 7 18
7 9 0 12 5 9 10 -3 6 1 10 10 10 9 0 14 4 11 8 -3 5 8 24 24 43 26 30 33 30
29 2 -1 -5 -5 -7 -10 -6 -5 2 -9 -4 -9 -12 0 -8 -7 -15 -16 -15 -8 0 -13 -4
-10 -9 9 -14 -57 -66 -129 -102 -106 -52 -247 -53 -366 -1 -21 9 -39 20 -39
24 0 5 -6 8 -13 8 -24 0 -93 68 -137 134 -57 88 -72 85 -17 -3 52 -84 108
-133 204 -179 l73 -34 127 3 c127 4 128 4 197 43 87 49 158 123 199 206 31 63
32 69 32 200 0 132 -1 137 -32 200 -42 84 -124 167 -210 211 -64 33 -72 34
-192 37 l-126 3 -82 -41z m347 7 c53 -19 131 -68 124 -78 -3 -5 1 -9 9 -9 15
0 57 -44 57 -60 0 -6 7 -10 15 -10 9 0 12 -6 8 -17 -4 -11 -3 -14 5 -9 8 5 10
2 6 -8 -5 -12 -11 -9 -30 13 -13 16 -24 32 -24 36 0 10 -52 55 -63 55 -5 0 -5
5 -2 10 3 6 -1 10 -9 10 -9 0 -16 5 -16 10 0 6 -9 10 -19 10 -11 0 -23 5 -26
10 -3 6 -16 10 -29 10 -12 0 -26 4 -32 10 -5 5 -54 10 -109 12 -93 1 -147 -8
-197 -33 -10 -5 -24 -9 -31 -9 -7 0 -19 -9 -26 -19 -8 -11 -21 -17 -30 -14
-13 4 -13 3 -2 -5 16 -12 -3 -27 -21 -16 -7 5 -9 2 -6 -8 4 -9 -7 -27 -28 -47
-19 -18 -37 -44 -40 -58 -5 -18 -9 -21 -15 -12 -8 13 19 69 33 69 4 0 8 7 8
15 0 9 6 12 17 8 12 -5 15 -2 10 9 -3 10 5 25 21 41 37 35 149 89 197 96 63 9
207 2 245 -12z m-22 -36 c105 -34 187 -105 243 -211 21 -40 24 -58 24 -170 0
-141 -10 -170 -87 -262 -124 -146 -333 -181 -514 -85 -55 29 -123 106 -155
175 -25 53 -33 84 -36 153 -5 78 -3 91 26 165 64 159 198 252 367 253 45 1 94
-6 132 -18z m306 -348 c3 -104 -7 -172 -37 -230 -19 -37 -37 -48 -37 -22 0 6
4 8 8 5 4 -2 16 23 27 57 23 75 27 245 8 295 -8 17 -10 32 -6 32 4 0 2 5 -5
12 -7 7 -12 19 -11 28 0 8 12 -8 25 -37 19 -40 26 -72 28 -140z"/>
<path d="M348 773 c57 -2 147 -2 200 0 53 1 7 3 -103 3 -110 0 -154 -2 -97 -3z"/>
<path d="M157 692 c-14 -16 -17 -43 -17 -173 0 -107 4 -159 12 -167 9 -9 6
-12 -15 -12 -31 0 -34 -11 -11 -34 13 -14 55 -16 308 -16 296 0 316 2 316 37
0 7 -10 13 -22 13 -17 0 -19 3 -10 12 8 8 12 60 12 168 0 139 -2 159 -18 173
-16 15 -51 17 -279 17 -239 0 -261 -1 -276 -18z m548 -12 c3 -6 -1 -7 -9 -4
-18 7 -21 14 -7 14 6 0 13 -4 16 -10z m-15 -160 l0 -150 -260 0 -260 0 0 150
0 150 260 0 260 0 0 -150z m12 -175 c-3 -19 0 -25 14 -25 9 0 14 -3 11 -7 -9
-8 -473 -13 -539 -6 -27 3 -48 10 -48 15 0 5 4 7 9 4 11 -7 33 18 24 27 -3 4
108 5 248 2 156 -3 260 -1 269 5 8 5 16 10 16 10 1 0 -1 -11 -4 -25z"/>
<path d="M413 333 c15 -2 37 -2 50 0 12 2 0 4 -28 4 -27 0 -38 -2 -22 -4z"/>
<path d="M1723 693 c-12 -48 -19 -91 -17 -95 15 -24 32 -1 47 65 10 39 20 82
23 95 5 17 2 22 -13 22 -16 0 -23 -15 -40 -87z"/>
<path d="M1242 693 c-21 -68 -22 -77 -8 -91 14 -14 21 -14 71 2 33 10 55 23
55 32 0 18 -18 18 -63 -1 l-35 -14 19 62 c23 77 24 87 2 87 -14 0 -24 -19 -41
-77z m11 -63 c-3 -12 -8 -19 -11 -16 -5 6 5 36 12 36 2 0 2 -9 -1 -20z"/>
<path d="M1404 759 c-9 -15 12 -33 30 -26 9 4 16 13 16 22 0 17 -35 21 -46 4z"/>
<path d="M1476 726 c-4 -15 -13 -26 -21 -26 -17 0 -20 -16 -5 -25 6 -4 8 -15
5 -25 -9 -28 12 -60 40 -60 22 0 65 41 65 61 0 14 -22 10 -42 -8 -10 -9 -21
-13 -25 -9 -12 11 12 40 37 46 34 8 38 30 5 30 -19 0 -25 5 -23 17 5 29 -29
27 -36 -1z m15 -49 c-16 -16 -26 0 -10 19 9 11 15 12 17 4 2 -6 -1 -17 -7 -23z
m4 -66 c-6 -5 -25 10 -25 20 0 5 6 4 14 -3 8 -7 12 -15 11 -17z"/>
<path d="M1610 725 c0 -15 -6 -25 -14 -25 -11 0 -13 -10 -9 -42 3 -24 10 -49
16 -55 14 -19 44 -16 67 7 23 23 26 50 6 50 -8 0 -16 -7 -20 -15 -9 -23 -28
-18 -24 7 2 16 12 24 32 28 38 6 47 30 12 30 -19 0 -26 5 -26 20 0 13 -7 20
-20 20 -15 0 -20 -7 -20 -25z m17 -42 c-10 -10 -17 -12 -17 -6 0 7 5 15 10 18
6 4 7 12 4 18 -5 8 -2 8 7 -1 11 -10 10 -15 -4 -29z m13 -69 c0 -2 -7 -4 -15
-4 -8 0 -15 4 -15 10 0 5 7 7 15 4 8 -4 15 -8 15 -10z"/>
<path d="M1381 659 c-10 -37 -10 -54 -2 -62 15 -15 26 -1 40 55 14 60 14 58
-7 58 -14 0 -22 -13 -31 -51z"/>
<path d="M1792 687 c-52 -55 2 -122 69 -87 20 11 26 40 8 40 -6 0 -19 -5 -29
-10 -11 -6 -21 -6 -24 -1 -4 5 10 15 29 21 27 9 35 17 35 36 0 21 -5 24 -33
24 -22 0 -41 -8 -55 -23z m68 -7 c0 -4 -14 -13 -31 -20 -23 -10 -29 -18 -26
-32 5 -16 3 -17 -9 -7 -20 17 -17 40 6 46 11 3 18 9 15 13 -3 4 7 8 20 8 14 0
25 -4 25 -8z"/>
<path d="M941 487 c-6 -8 -9 -21 -6 -28 3 -8 -4 -43 -15 -79 -13 -45 -16 -68
-9 -75 13 -12 39 20 39 47 0 10 6 20 13 22 6 2 31 9 55 15 55 15 76 52 46 80
-26 25 -107 37 -123 18z m33 -22 c-4 -8 -10 -12 -15 -9 -11 6 -2 24 11 24 5 0
7 -7 4 -15z m63 -21 c4 -11 -54 -41 -62 -32 -2 2 -2 14 2 26 4 18 12 22 31 20
14 -2 27 -8 29 -14z m-78 -55 c-16 -10 -23 -4 -14 10 3 6 11 8 17 5 6 -4 5 -9
-3 -15z"/>
<path d="M1514 458 c-6 -20 -17 -34 -29 -36 -46 -9 -83 -68 -65 -102 8 -15 20
-19 57 -17 l48 2 6 45 c4 25 12 63 18 85 14 53 14 55 -8 55 -12 0 -21 -11 -27
-32z m12 -53 c-3 -9 -11 -13 -16 -10 -8 5 -7 11 1 21 14 18 24 11 15 -11z
m-56 -9 c0 -2 -8 -10 -17 -17 -16 -13 -17 -12 -4 4 13 16 21 21 21 13z m20
-35 c-6 -12 -17 -21 -26 -21 -11 0 -12 4 -4 19 9 18 31 32 38 25 2 -1 -1 -12
-8 -23z m-35 -40 c-6 -5 -25 10 -25 20 0 5 6 4 14 -3 8 -7 12 -15 11 -17z m51
2 c-10 -10 -19 5 -10 18 6 11 8 11 12 0 2 -7 1 -15 -2 -18z"/>
<path d="M1590 459 c0 -25 33 -22 38 4 2 12 -3 17 -17 17 -15 0 -21 -6 -21
-21z"/>
<path d="M1647 412 c-24 -27 -21 -40 14 -61 17 -10 26 -22 21 -25 -6 -3 -12
-2 -14 4 -1 5 -13 7 -26 3 -26 -6 -25 -26 2 -31 46 -9 91 63 46 75 -24 6 -16
23 11 23 10 0 19 7 19 15 0 22 -53 19 -73 -3z m10 -34 c-3 -8 -6 -5 -6 6 -1
11 2 17 5 13 3 -3 4 -12 1 -19z m33 -18 c0 -5 -2 -10 -4 -10 -3 0 -8 5 -11 10
-3 6 -1 10 4 10 6 0 11 -4 11 -10z"/>
<path d="M1080 388 c-11 -18 -19 -44 -18 -58 3 -23 7 -25 47 -25 l45 0 13 50
c17 67 18 65 -27 65 -35 0 -43 -5 -60 -32z m40 8 c0 -2 -7 -9 -15 -16 -13 -11
-14 -10 -9 4 5 14 24 23 24 12z m8 -28 c-7 -13 -11 -29 -10 -35 2 -7 -6 -13
-18 -13 -14 0 -20 6 -19 23 1 16 2 18 6 5 2 -10 9 -18 14 -18 6 0 7 5 4 11 -4
5 1 19 11 30 23 25 28 24 12 -3z m19 -18 c-3 -21 -17 -40 -17 -22 0 13 11 42
16 42 2 0 3 -9 1 -20z"/>
<path d="M1207 407 c-3 -8 -9 -36 -12 -62 -7 -42 -6 -47 11 -43 11 2 20 13 22
28 5 35 29 59 54 52 16 -4 19 -1 16 14 -4 24 -82 33 -91 11z m37 -14 c-5 -5
-12 -12 -16 -18 -4 -6 -8 -2 -8 8 0 9 7 17 17 17 9 0 12 -3 7 -7z"/>
<path d="M1327 402 c-23 -26 -37 -67 -26 -83 4 -8 26 -15 48 -16 38 -1 39 0
50 42 17 69 15 75 -22 75 -20 0 -41 -7 -50 -18z m66 -30 c-7 -25 -32 -57 -40
-49 -3 4 1 15 10 25 10 10 17 26 17 36 0 9 4 15 9 12 5 -3 7 -14 4 -24z m-42
-15 c-13 -12 -20 -15 -16 -7 14 26 28 41 33 35 3 -3 -5 -16 -17 -28z m-16 -35
c-3 -3 -11 0 -18 7 -9 10 -8 11 6 5 10 -3 15 -9 12 -12z"/>
<path d="M1566 369 c-9 -28 -13 -55 -10 -60 13 -22 33 -5 43 35 15 59 14 76
-4 76 -9 0 -20 -20 -29 -51z"/>
<path d="M1752 397 c-36 -38 -25 -97 20 -97 28 0 68 22 68 38 0 14 -13 13 -52
-3 -33 -13 -18 11 15 26 43 19 45 53 2 57 -22 2 -37 -4 -53 -21z m68 -6 c0 -5
-8 -8 -17 -7 -11 0 -25 -13 -35 -34 l-18 -35 0 31 c0 16 5 35 12 42 14 14 58
16 58 3z"/>
</g>
</svg>
